<svg xmlns="http://www.w3.org/2000/svg" width="26.714" height="437"><g fill="#a5a5a5"><path d="M12 51h2v20h-2zM12 226h2v20h-2zM12 86h2v20h-2zM12 261h2v20h-2zM12 121h2v20h-2zM12 296h2v20h-2zM12 156h2v20h-2zM12 331h2v20h-2zM12 191h2v20h-2zM12 366h2v20h-2z"/></g><path d="M13.857 0A12.768 12.768 0 001 12.6C1 22.05 13.857 36 13.857 36s12.857-13.95 12.857-23.4A12.768 12.768 0 0013.857 0zm0 17.1a4.5 4.5 0 114.592-4.5 4.5 4.5 0 01-4.592 4.5z" fill="#afb6c6"/><path d="M12.857 401A12.768 12.768 0 000 413.6c0 9.45 12.857 23.4 12.857 23.4s12.857-13.95 12.857-23.4A12.768 12.768 0 0012.857 401zm0 17.1a4.5 4.5 0 114.592-4.5 4.5 4.5 0 01-4.592 4.5z" fill="#65c511"/></svg>