<svg xmlns="http://www.w3.org/2000/svg" width="131" height="25" viewBox="0 0 131 25">
  <g transform="translate(-50 -31)" fill="#ffffff">
    <path d="M44.5,40.036A4.464,4.464,0,1,0,48.964,44.5,4.477,4.477,0,0,0,44.5,40.036ZM55.155,43.31a10.755,10.755,0,0,0-9.465-9.464V32H43.31v1.845a10.755,10.755,0,0,0-9.465,9.464H32V45.69h1.845a10.755,10.755,0,0,0,9.465,9.465V57H45.69V55.155a10.755,10.755,0,0,0,9.465-9.465H57V43.31ZM44.5,52.833A8.333,8.333,0,1,1,52.833,44.5,8.358,8.358,0,0,1,44.5,52.833Z" transform="translate(18 -1)"/>
    <path d="M8.01-.43A3.152,3.152,0,0,1,6.788.061,7.728,7.728,0,0,1,5.265.21,5.456,5.456,0,0,1,3.473-.083,3.834,3.834,0,0,1,1.98-1.028a4.646,4.646,0,0,1-1.027-1.7A7.368,7.368,0,0,1,.57-5.25,6.846,6.846,0,0,1,1-7.838a4.693,4.693,0,0,1,1.11-1.68,4.1,4.1,0,0,1,1.523-.915,5.328,5.328,0,0,1,1.68-.278,8.2,8.2,0,0,1,1.523.12,5.566,5.566,0,0,1,1.028.285l-.405,1.74a2.974,2.974,0,0,0-.817-.24A7.465,7.465,0,0,0,5.49-8.88a2.5,2.5,0,0,0-2,.887A4.171,4.171,0,0,0,2.73-5.243a5.693,5.693,0,0,0,.18,1.481A3.192,3.192,0,0,0,3.458-2.62a2.527,2.527,0,0,0,.915.737A2.894,2.894,0,0,0,5.64-1.62a4.141,4.141,0,0,0,1.14-.135A3.348,3.348,0,0,0,7.59-2.1ZM14.7-.645a3.816,3.816,0,0,1-1.223.608A5.352,5.352,0,0,1,11.835.21,3.186,3.186,0,0,1,9.18-.848a4.547,4.547,0,0,1-.84-2.9,4.154,4.154,0,0,1,.945-2.97,3.5,3.5,0,0,1,2.655-.99,4.128,4.128,0,0,1,1.11.15,2.583,2.583,0,0,1,.96.495,2.435,2.435,0,0,1,.675.93A3.647,3.647,0,0,1,14.94-4.68a6.556,6.556,0,0,1-.037.675q-.037.36-.112.75H10.305a2.2,2.2,0,0,0,.486,1.425,1.858,1.858,0,0,0,1.428.48,3.033,3.033,0,0,0,1.1-.188,3.036,3.036,0,0,0,.74-.382ZM11.917-6.15a1.355,1.355,0,0,0-1.127.457,2.269,2.269,0,0,0-.44,1.223h2.775a1.9,1.9,0,0,0-.246-1.245A1.1,1.1,0,0,0,11.917-6.15ZM20.91,0V-4.26a2.514,2.514,0,0,0-.262-1.32.982.982,0,0,0-.892-.405,1.405,1.405,0,0,0-.937.322,1.791,1.791,0,0,0-.548.8V0H16.32V-7.5h1.545l.225.99h.06a3.233,3.233,0,0,1,.915-.84,2.713,2.713,0,0,1,1.47-.36,3.029,3.029,0,0,1,.99.15,1.685,1.685,0,0,1,.735.495,2.249,2.249,0,0,1,.45.938,6.062,6.062,0,0,1,.15,1.462V0Zm2.805-7.5H24.75V-8.91l1.95-.555V-7.5h1.83v1.65H26.7v2.88a2.855,2.855,0,0,0,.158,1.118.592.592,0,0,0,.592.337,1.962,1.962,0,0,0,.517-.06,3.533,3.533,0,0,0,.488-.18l.345,1.5a4.951,4.951,0,0,1-.945.33A4.5,4.5,0,0,1,26.76.21a1.969,1.969,0,0,1-1.523-.533A2.552,2.552,0,0,1,24.75-2.07V-5.85H23.715ZM35.655-.645a3.816,3.816,0,0,1-1.222.608A5.352,5.352,0,0,1,32.79.21,3.186,3.186,0,0,1,30.135-.848a4.547,4.547,0,0,1-.84-2.9,4.154,4.154,0,0,1,.945-2.97A3.5,3.5,0,0,1,32.9-7.71,4.128,4.128,0,0,1,34-7.56a2.583,2.583,0,0,1,.96.495,2.435,2.435,0,0,1,.675.93A3.647,3.647,0,0,1,35.9-4.68a6.556,6.556,0,0,1-.037.675q-.037.36-.112.75H31.26a2.2,2.2,0,0,0,.486,1.425,1.858,1.858,0,0,0,1.428.48,3.033,3.033,0,0,0,1.1-.188,3.036,3.036,0,0,0,.74-.382ZM32.872-6.15a1.355,1.355,0,0,0-1.127.457,2.269,2.269,0,0,0-.44,1.223H34.08a1.9,1.9,0,0,0-.246-1.245A1.1,1.1,0,0,0,32.872-6.15Zm8.543.48a2.54,2.54,0,0,0-.84-.165,1.375,1.375,0,0,0-.877.278,1.337,1.337,0,0,0-.472.713V0h-1.95V-7.5H38.79l.225.99h.06a2.045,2.045,0,0,1,.69-.855,1.752,1.752,0,0,1,1.02-.3,2.837,2.837,0,0,1,.885.165ZM49.23,0H42.585V-10.5H44.64v8.67h4.59Zm.135-3.75a4.222,4.222,0,0,1,.93-2.933A3.341,3.341,0,0,1,52.9-7.71a3.915,3.915,0,0,1,1.56.285,2.914,2.914,0,0,1,1.095.8,3.432,3.432,0,0,1,.653,1.252,5.694,5.694,0,0,1,.218,1.62,4.244,4.244,0,0,1-.923,2.932A3.317,3.317,0,0,1,52.9.21a3.914,3.914,0,0,1-1.56-.285,2.981,2.981,0,0,1-1.1-.8,3.37,3.37,0,0,1-.66-1.253A5.694,5.694,0,0,1,49.365-3.75Zm2.01,0a4.368,4.368,0,0,0,.09.915,2.551,2.551,0,0,0,.27.735,1.3,1.3,0,0,0,.472.487,1.349,1.349,0,0,0,.7.173A1.282,1.282,0,0,0,54.045-2,3.2,3.2,0,0,0,54.42-3.75a3.509,3.509,0,0,0-.345-1.673A1.221,1.221,0,0,0,52.9-6.06a1.327,1.327,0,0,0-1.125.54A3,3,0,0,0,51.375-3.75ZM64.125,0a3.031,3.031,0,0,1-.885,2.408,3.642,3.642,0,0,1-2.475.773,7.6,7.6,0,0,1-1.7-.15,4.283,4.283,0,0,1-.937-.315l.4-1.545q.345.135.8.27a4.059,4.059,0,0,0,1.132.135,1.745,1.745,0,0,0,1.388-.442A1.883,1.883,0,0,0,62.22-.105v-.48h-.06A2.178,2.178,0,0,1,60.3.12a2.6,2.6,0,0,1-2.167-.9A4.531,4.531,0,0,1,57.42-3.6a4.328,4.328,0,0,1,.96-3.045A3.619,3.619,0,0,1,61.17-7.68a9.852,9.852,0,0,1,1.718.135,7.216,7.216,0,0,1,1.237.315Zm-3.3-1.44A1.34,1.34,0,0,0,61.7-1.7a1.606,1.606,0,0,0,.472-.765V-5.835A3,3,0,0,0,61.02-6.03a1.377,1.377,0,0,0-1.17.563,3.025,3.025,0,0,0-.42,1.793,3.143,3.143,0,0,0,.36,1.665A1.153,1.153,0,0,0,60.825-1.44Zm5.16-6.06h1.95V0h-1.95ZM65.7-9.615a.989.989,0,0,1,.323-.742,1.241,1.241,0,0,1,.892-.307,1.353,1.353,0,0,1,.923.307.952.952,0,0,1,.353.742.909.909,0,0,1-.353.727,1.4,1.4,0,0,1-.923.293,1.28,1.28,0,0,1-.892-.293A.942.942,0,0,1,65.7-9.615ZM72.96-2.07a.56.56,0,0,0-.255-.48,3.072,3.072,0,0,0-.63-.33q-.375-.15-.825-.307a3.1,3.1,0,0,1-.825-.435,2.383,2.383,0,0,1-.63-.705,2.129,2.129,0,0,1-.255-1.1,2.146,2.146,0,0,1,.66-1.7,2.784,2.784,0,0,1,1.905-.585,6.125,6.125,0,0,1,1.545.18,4.47,4.47,0,0,1,1.08.405l-.435,1.41Q73.95-5.85,73.425-6a3.859,3.859,0,0,0-1.065-.15q-.87,0-.87.675a.5.5,0,0,0,.255.435,3.365,3.365,0,0,0,.63.308q.375.142.825.307A3.58,3.58,0,0,1,74.025-4a2.236,2.236,0,0,1,.63.683,2.056,2.056,0,0,1,.255,1.08,2.285,2.285,0,0,1-.728,1.793A3.18,3.18,0,0,1,72,.21a5.33,5.33,0,0,1-1.493-.2,4.593,4.593,0,0,1-1.132-.473l.54-1.455a5.2,5.2,0,0,0,.915.382A3.721,3.721,0,0,0,72-1.35a1.3,1.3,0,0,0,.7-.165A.6.6,0,0,0,72.96-2.07ZM75.4-7.5H76.44V-8.91l1.95-.555V-7.5h1.83v1.65H78.39v2.88a2.855,2.855,0,0,0,.158,1.118.592.592,0,0,0,.592.337,1.962,1.962,0,0,0,.518-.06,3.533,3.533,0,0,0,.488-.18l.345,1.5a4.951,4.951,0,0,1-.945.33A4.5,4.5,0,0,1,78.45.21a1.969,1.969,0,0,1-1.522-.533A2.552,2.552,0,0,1,76.44-2.07V-5.85H75.4Zm6.18,0h1.95V0h-1.95ZM81.3-9.615a.989.989,0,0,1,.323-.742,1.241,1.241,0,0,1,.892-.307,1.353,1.353,0,0,1,.923.307.952.952,0,0,1,.353.742.909.909,0,0,1-.353.727,1.4,1.4,0,0,1-.923.293,1.28,1.28,0,0,1-.892-.293A.942.942,0,0,1,81.3-9.615Zm9.465,9.15a3.26,3.26,0,0,1-1.088.5A5,5,0,0,1,88.365.21a3.646,3.646,0,0,1-1.522-.285,2.6,2.6,0,0,1-1.012-.8,3.309,3.309,0,0,1-.562-1.253A7.093,7.093,0,0,1,85.1-3.75a4.468,4.468,0,0,1,.855-2.933A3.055,3.055,0,0,1,88.44-7.71a5.284,5.284,0,0,1,1.328.135,4.507,4.507,0,0,1,.907.345L90.21-5.64a3.931,3.931,0,0,0-.683-.255,3.007,3.007,0,0,0-.772-.09,1.472,1.472,0,0,0-1.23.532,2.756,2.756,0,0,0-.42,1.7,3.521,3.521,0,0,0,.105.885,2.164,2.164,0,0,0,.315.705,1.477,1.477,0,0,0,.548.472,1.708,1.708,0,0,0,.787.173,2.434,2.434,0,0,0,.84-.127,2.944,2.944,0,0,0,.615-.308Z" transform="translate(90 49)"/>
  </g>
</svg>
