<svg version="1.0" xmlns="http://www.w3.org/2000/svg" width="1333.333" height="1333.333" viewBox="0 0 1000 1000"><path d="M132 1.1c-33.2 4.2-64.5 19.5-87.9 43C22.8 65.3 8 93.6 2.4 123.5.6 133.2.5 146.2.5 500s.1 366.8 1.9 376.5C10.9 922.4 40 961.7 81 982.9c13.1 6.8 24.7 10.9 40 14.3l10.5 2.3h737l10.5-2.3c30.4-6.7 55.8-20.3 76.7-41 21.2-21 36.3-49.7 41.9-79.7 1.8-9.7 1.9-22.7 1.9-376.5s-.1-366.8-1.9-376.5c-5.6-29.9-20.4-58.2-41.7-79.4-20.6-20.7-45.8-34.3-76.4-41.3l-10-2.3L504 .4c-201-.1-368.4.2-372 .7zm402.2 167.1l.3 26.3 6 .8c49.6 6.8 90.3 21.8 131.5 48.5 49.1 31.8 88.4 77.2 113.3 130.9 12.4 26.7 18 46 25.5 86.8l.7 4 27.3.3 27.2.2v68l-27.2.2-27.3.3-.7 4c-3.1 17.8-6.4 33.6-8.8 42-15 53.7-44.7 102.6-85.3 140.4-50.6 47-109.8 75.2-176.7 83.9l-5.5.7-.3 26.3-.2 26.2h-69l-.2-26.3-.3-26.2-9.8-1.2c-31-3.9-68.6-15.8-100.7-31.9-8.3-4.1-30.4-17.8-40-24.7-47.1-33.9-85-81.9-106.2-134.7-7.5-18.5-14.1-41.8-17.3-60.5-.9-5.5-1.9-11.8-2.3-14l-.7-4-26.8-.3-26.7-.2v-68l26.7-.2 26.8-.3.7-4.5c.3-2.5 1.2-8.1 1.8-12.5 1.6-11.2 8.1-35.9 12.8-49 25.9-72 78.5-132.6 147.4-169.8 29.8-16.1 65.8-28 99.8-33.1l14.5-2.1.3-26.3.2-26.2h69l.2 26.2z"/><path d="M477 262c-86.3 8.5-161.8 60.5-198.3 136.8-15.6 32.8-22.7 63.9-22.7 99.7 0 28.6 3.4 50.1 12 75.5 16.2 48.3 44.8 87.1 87.3 118.4 57.5 42.3 136 57 206 38.6 50.1-13.2 97.1-43.5 129.2-83.2C724 606.2 743 553.3 743 501.6c0-90.6-51.5-173.4-133-214.1-24.6-12.3-43.1-18.4-70.5-23-16.6-2.9-46.7-4.1-62.5-2.5zm40.7 111.1c9.9 1.3 23.5 5.2 33.8 9.6 36.4 15.6 64.5 48.2 74.1 86 10.4 41.2.6 82.4-27.3 114.4-18.1 20.7-40.8 34.2-70.3 41.7-9.5 2.4-12.2 2.7-29 2.6-20.2 0-28.6-1.4-45.5-7.6-39.3-14.4-70.1-48.3-80.7-88.8-3.6-13.9-4.9-35.8-2.9-48.7 8.2-51.6 45.4-92.5 96.6-106.2 4.4-1.2 10.7-2.5 14-3 8.8-1.2 28.2-1.3 37.2 0z"/></svg>