<svg xmlns="http://www.w3.org/2000/svg" width="26.714" height="437" viewBox="0 0 26.714 437"><g transform="translate(-50 -1775)"><g transform="translate(-18 -1)"><rect width="2" height="20" transform="translate(80 1827)" fill="#a5a5a5"/><rect width="2" height="20" transform="translate(80 2002)" fill="#a5a5a5"/><rect width="2" height="20" transform="translate(80 1862)" fill="#a5a5a5"/><rect width="2" height="20" transform="translate(80 2037)" fill="#a5a5a5"/><rect width="2" height="20" transform="translate(80 1897)" fill="#a5a5a5"/><rect width="2" height="20" transform="translate(80 2072)" fill="#a5a5a5"/><rect width="2" height="20" transform="translate(80 1932)" fill="#a5a5a5"/><rect width="2" height="20" transform="translate(80 2107)" fill="#a5a5a5"/><rect width="2" height="20" transform="translate(80 1967)" fill="#a5a5a5"/><rect width="2" height="20" transform="translate(80 2142)" fill="#a5a5a5"/></g><path d="M108.857,32A12.768,12.768,0,0,0,96,44.6C96,54.05,108.857,68,108.857,68s12.857-13.95,12.857-23.4A12.768,12.768,0,0,0,108.857,32Zm0,17.1a4.5,4.5,0,1,1,4.592-4.5A4.5,4.5,0,0,1,108.857,49.1Z" transform="translate(-45 1743)" fill="#afb6c6"/><path d="M108.857,32A12.768,12.768,0,0,0,96,44.6C96,54.05,108.857,68,108.857,68s12.857-13.95,12.857-23.4A12.768,12.768,0,0,0,108.857,32Zm0,17.1a4.5,4.5,0,1,1,4.592-4.5A4.5,4.5,0,0,1,108.857,49.1Z" transform="translate(-46 2144)" fill="#65c511"/></g></svg>