<?xml version="1.0" standalone="no"?>
<!DOCTYPE svg PUBLIC "-//W3C//DTD SVG 20010904//EN"
 "http://www.w3.org/TR/2001/REC-SVG-20010904/DTD/svg10.dtd">
<svg version="1.0" xmlns="http://www.w3.org/2000/svg"
 width="1000.000000pt" height="1000.000000pt" viewBox="0 0 1000.000000 1000.000000"
 preserveAspectRatio="xMidYMid meet">
<metadata>
Created by potrace 1.14, written by Peter Selinger 2001-2017
</metadata>
<g transform="translate(0.000000,1000.000000) scale(0.100000,-0.100000)"
fill="#000000" stroke="none">
<path d="M1320 9989 c-332 -42 -645 -195 -879 -430 -213 -212 -361 -495 -417
-794 -18 -97 -19 -227 -19 -3765 0 -3538 1 -3668 19 -3765 85 -459 376 -852
786 -1064 131 -68 247 -109 400 -143 l105 -23 3685 0 3685 0 105 23 c304 67
558 203 767 410 212 210 363 497 419 797 18 97 19 227 19 3765 0 3538 -1 3668
-19 3765 -56 299 -204 582 -417 794 -206 207 -458 343 -764 413 l-100 23
-3655 1 c-2010 1 -3684 -2 -3720 -7z m4022 -1671 l3 -263 60 -8 c496 -68 903
-218 1315 -485 491 -318 884 -772 1133 -1309 124 -267 180 -460 255 -868 l7
-40 273 -3 272 -2 0 -340 0 -340 -272 -2 -273 -3 -7 -40 c-31 -178 -64 -336
-88 -420 -150 -537 -447 -1026 -853 -1404 -506 -470 -1098 -752 -1767 -839
l-55 -7 -3 -263 -2 -262 -345 0 -345 0 -2 263 -3 262 -98 12 c-310 39 -686
158 -1007 319 -83 41 -304 178 -400 247 -471 339 -850 819 -1062 1347 -75 185
-141 418 -173 605 -9 55 -19 118 -23 140 l-7 40 -268 3 -267 2 0 340 0 340
267 2 268 3 7 45 c3 25 12 81 18 125 16 112 81 359 128 490 259 720 785 1326
1474 1698 298 161 658 280 998 331 l145 21 3 263 2 262 345 0 345 0 2 -262z"/>
<path d="M4770 7380 c-863 -85 -1618 -605 -1983 -1368 -156 -328 -227 -639
-227 -997 0 -286 34 -501 120 -755 162 -483 448 -871 873 -1184 575 -423 1360
-570 2060 -386 501 132 971 435 1292 832 335 416 525 945 525 1462 0 906 -515
1734 -1330 2141 -246 123 -431 184 -705 230 -166 29 -467 41 -625 25z m407
-1111 c99 -13 235 -52 338 -96 364 -156 645 -482 741 -860 104 -412 6 -824
-273 -1144 -181 -207 -408 -342 -703 -417 -95 -24 -122 -27 -290 -26 -202 0
-286 14 -455 76 -393 144 -701 483 -807 888 -36 139 -49 358 -29 487 82 516
454 925 966 1062 44 12 107 25 140 30 88 12 282 13 372 0z"/>
</g>
</svg>
